<svg width="120" height="120" viewBox="0 0 120 120" fill="none" xmlns="http://www.w3.org/2000/svg">
  <defs>
    <linearGradient id="nodeGradient" x1="0%" y1="0%" x2="100%" y2="100%">
      <stop offset="0%" style="stop-color:#339933;stop-opacity:1" />
      <stop offset="50%" style="stop-color:#00D4FF;stop-opacity:1" />
      <stop offset="100%" style="stop-color:#00FF88;stop-opacity:1" />
    </linearGradient>
  </defs>
  <path d="M20 30 Q20 20 30 20 L50 20 Q60 20 60 30 L60 50 Q60 60 50 60 L30 60 Q20 60 20 50 L20 30 Z" fill="url(#nodeGradient)" opacity="0.1"/>
  <path d="M20 30 Q20 20 30 20 L50 20 Q60 20 60 30 L60 50 Q60 60 50 60 L30 60 Q20 60 20 50 L20 30 Z" fill="none" stroke="url(#nodeGradient)" stroke-width="3"/>
  <path d="M60 30 Q60 20 70 20 L90 20 Q100 20 100 30 L100 50 Q100 60 90 60 L70 60 Q60 60 60 50 L60 30 Z" fill="url(#nodeGradient)" opacity="0.1"/>
  <path d="M60 30 Q60 20 70 20 L90 20 Q100 20 100 30 L100 50 Q100 60 90 60 L70 60 Q60 60 60 50 L60 30 Z" fill="none" stroke="url(#nodeGradient)" stroke-width="3"/>
  <circle cx="40" cy="40" r="8" fill="url(#nodeGradient)"/>
  <circle cx="80" cy="40" r="8" fill="url(#nodeGradient)"/>
  <path d="M48 40 Q60 50 72 40" fill="none" stroke="url(#nodeGradient)" stroke-width="2"/>
  <text x="60" y="110" text-anchor="middle" fill="url(#nodeGradient)" font-family="Arial" font-size="12" font-weight="bold">Node.js</text>
</svg>
