<svg width="120" height="120" viewBox="0 0 120 120" fill="none" xmlns="http://www.w3.org/2000/svg">
  <defs>
    <linearGradient id="pythonGradient" x1="0%" y1="0%" x2="100%" y2="100%">
      <stop offset="0%" style="stop-color:#3776AB;stop-opacity:1" />
      <stop offset="50%" style="stop-color:#00D4FF;stop-opacity:1" />
      <stop offset="100%" style="stop-color:#00FF88;stop-opacity:1" />
    </linearGradient>
  </defs>
  <path d="M30 30 Q30 20 40 20 L80 20 Q90 20 90 30 L90 50 Q90 60 80 60 L70 60 L70 70 Q70 80 60 80 L40 80 Q30 80 30 70 L30 30 Z" fill="url(#pythonGradient)" opacity="0.1"/>
  <path d="M30 30 Q30 20 40 20 L80 20 Q90 20 90 30 L90 50 Q90 60 80 60 L70 60 L70 70 Q70 80 60 80 L40 80 Q30 80 30 70 L30 30 Z" fill="none" stroke="url(#pythonGradient)" stroke-width="3"/>
  <path d="M90 50 Q90 40 80 40 L40 40 Q30 40 30 50 L30 70 Q30 80 40 80 L60 80 Q70 80 70 70 L70 60 L80 60 Q90 60 90 50 Z" fill="url(#pythonGradient)" opacity="0.1"/>
  <path d="M90 50 Q90 40 80 40 L40 40 Q30 40 30 50 L30 70 Q30 80 40 80 L60 80 Q70 80 70 70 L70 60 L80 60 Q90 60 90 50 Z" fill="none" stroke="url(#pythonGradient)" stroke-width="3"/>
  <circle cx="40" cy="35" r="5" fill="url(#pythonGradient)"/>
  <circle cx="80" cy="65" r="5" fill="url(#pythonGradient)"/>
  <text x="60" y="110" text-anchor="middle" fill="url(#pythonGradient)" font-family="Arial" font-size="12" font-weight="bold">Python</text>
</svg>
