<svg width="120" height="120" viewBox="0 0 120 120" fill="none" xmlns="http://www.w3.org/2000/svg">
  <defs>
    <linearGradient id="vueGradient" x1="0%" y1="0%" x2="100%" y2="100%">
      <stop offset="0%" style="stop-color:#4FC08D;stop-opacity:1" />
      <stop offset="50%" style="stop-color:#00D4FF;stop-opacity:1" />
      <stop offset="100%" style="stop-color:#00FF88;stop-opacity:1" />
    </linearGradient>
  </defs>
  <path d="M60 20 L80 60 L100 20 L110 20 L80 70 L50 20 L60 20 Z" fill="url(#vueGradient)" opacity="0.1"/>
  <path d="M60 20 L80 60 L100 20 L110 20 L80 70 L50 20 L60 20 Z" fill="none" stroke="url(#vueGradient)" stroke-width="3"/>
  <path d="M40 30 L60 60 L80 30 L90 30 L60 80 L30 30 L40 30 Z" fill="url(#vueGradient)" opacity="0.1"/>
  <path d="M40 30 L60 60 L80 30 L90 30 L60 80 L30 30 L40 30 Z" fill="none" stroke="url(#vueGradient)" stroke-width="3"/>
  <circle cx="60" cy="50" r="6" fill="url(#vueGradient)"/>
  <text x="60" y="110" text-anchor="middle" fill="url(#vueGradient)" font-family="Arial" font-size="12" font-weight="bold">Vue.js</text>
</svg>
